<svg viewBox="0 0 63 84" xmlns="http://www.w3.org/2000/svg">
<path d="M31.3429 48.9143V82.6286L1 40.4857L7.74286 43.8571L31.3429 48.9143Z" />
<path d="M31.3429 82.6286V48.9143L7.74286 43.8571M31.3429 82.6286L7.74286 43.8571M31.3429 82.6286L1 40.4857L7.74286 43.8571" stroke-width="1.68571" stroke-linejoin="round"/>
<path d="M31.3429 48.9143V82.6285L54.9429 43.8571L31.3429 48.9143Z" stroke-width="1.68571" stroke-linejoin="round"/>
<path d="M61.6858 40.4857L54.9429 43.8571L31.3429 82.6286L61.6858 40.4857Z" stroke-width="1.68571" stroke-linejoin="round"/>
<path d="M1 40.4857L31.3429 1.71429L61.5 40.4857L54.5 44L31.3429 48.5L8.5 44L1 40.4857Z" stroke-width="1.68571" stroke-linejoin="round"/>
<path d="M22.9999 17L31.3428 1.71429L39.4999 17M11.4999 36.5L7.7428 43.8571L31.3428 48.9143L54.9428 43.8571L50.9999 36.5" stroke-width="1.68571" stroke-linejoin="round"/>
<g>
<path d="M42.56 39.2C41.4934 39.2 40.5734 38.9067 39.8 38.32C39.04 37.7333 38.4534 36.9067 38.04 35.84C37.6267 34.76 37.42 33.48 37.42 32C37.42 30.52 37.6267 29.2467 38.04 28.18C38.4534 27.1 39.04 26.2667 39.8 25.68C40.5734 25.0933 41.4934 24.8 42.56 24.8C43.6267 24.8 44.5467 25.0933 45.32 25.68C46.0934 26.2667 46.6867 27.1 47.1 28.18C47.5134 29.2467 47.72 30.52 47.72 32C47.72 33.48 47.5134 34.76 47.1 35.84C46.6867 36.9067 46.0934 37.7333 45.32 38.32C44.5467 38.9067 43.6267 39.2 42.56 39.2ZM42.56 37.24C43.5334 37.24 44.2867 36.7867 44.82 35.88C45.3534 34.96 45.62 33.6667 45.62 32C45.62 30.3333 45.3534 29.0467 44.82 28.14C44.2867 27.22 43.5334 26.76 42.56 26.76C41.5867 26.76 40.8334 27.22 40.3 28.14C39.7667 29.0467 39.5 30.3333 39.5 32C39.5 33.6667 39.7667 34.96 40.3 35.88C40.8334 36.7867 41.5867 37.24 42.56 37.24Z" />
<path d="M30.4116 39.2C29.3449 39.2 28.4249 38.9067 27.6516 38.32C26.8916 37.7333 26.3049 36.9067 25.8916 35.84C25.4783 34.76 25.2716 33.48 25.2716 32C25.2716 30.52 25.4783 29.2467 25.8916 28.18C26.3049 27.1 26.8916 26.2667 27.6516 25.68C28.4249 25.0933 29.3449 24.8 30.4116 24.8C31.4783 24.8 32.3983 25.0933 33.1716 25.68C33.9449 26.2667 34.5383 27.1 34.9516 28.18C35.3649 29.2467 35.5716 30.52 35.5716 32C35.5716 33.48 35.3649 34.76 34.9516 35.84C34.5383 36.9067 33.9449 37.7333 33.1716 38.32C32.3983 38.9067 31.4783 39.2 30.4116 39.2ZM30.4116 37.24C31.3849 37.24 32.1383 36.7867 32.6716 35.88C33.2049 34.96 33.4716 33.6667 33.4716 32C33.4716 30.3333 33.2049 29.0467 32.6716 28.14C32.1383 27.22 31.3849 26.76 30.4116 26.76C29.4383 26.76 28.6849 27.22 28.1516 28.14C27.6183 29.0467 27.3516 30.3333 27.3516 32C27.3516 33.6667 27.6183 34.96 28.1516 35.88C28.6849 36.7867 29.4383 37.24 30.4116 37.24Z" />
<path d="M18.6916 38.02V26.66L19.4316 27.22L16.6716 28.68L16.0916 26.8L19.8316 24.8H20.8716V38.02H18.6916ZM16.4716 39V36.92H23.1516V39H16.4716Z" />
</g>
</svg>