<svg viewBox="0 0 63 84" xmlns="http://www.w3.org/2000/svg">
<path d="M31.3429 48.9143V82.6286L1 40.4857L7.74286 43.8571L31.3429 48.9143Z" />
<path d="M31.3429 82.6286V48.9143L7.74286 43.8571M31.3429 82.6286L7.74286 43.8571M31.3429 82.6286L1 40.4857L7.74286 43.8571" stroke-width="1.68571" stroke-linejoin="round"/>
<path d="M31.3429 48.9143V82.6285L54.9429 43.8571L31.3429 48.9143Z" stroke-width="1.68571" stroke-linejoin="round"/>
<path d="M61.6858 40.4857L54.9429 43.8571L31.3429 82.6286L61.6858 40.4857Z" stroke-width="1.68571" stroke-linejoin="round"/>
<path d="M1 40.4857L31.3429 1.71429L61.5 40.4857L54.5 44L31.3429 48.5L8.5 44L1 40.4857Z" stroke-width="1.68571" stroke-linejoin="round"/>
<path d="M22.9999 17L31.3428 1.71429L39.4999 17M11.4999 36.5L7.7428 43.8571L31.3428 48.9143L54.9428 43.8571L50.9999 36.5" stroke-width="1.68571" stroke-linejoin="round"/>
<g>
<path d="M37.3319 41.27C35.8919 41.27 34.6499 40.874 33.6059 40.082C32.5799 39.29 31.7879 38.174 31.2299 36.734C30.6719 35.276 30.3929 33.548 30.3929 31.55C30.3929 29.552 30.6719 27.833 31.2299 26.393C31.7879 24.935 32.5799 23.81 33.6059 23.018C34.6499 22.226 35.8919 21.83 37.3319 21.83C38.7719 21.83 40.0139 22.226 41.0579 23.018C42.1019 23.81 42.9029 24.935 43.4609 26.393C44.0189 27.833 44.2979 29.552 44.2979 31.55C44.2979 33.548 44.0189 35.276 43.4609 36.734C42.9029 38.174 42.1019 39.29 41.0579 40.082C40.0139 40.874 38.7719 41.27 37.3319 41.27ZM37.3319 38.624C38.6459 38.624 39.6629 38.012 40.3829 36.788C41.1029 35.546 41.4629 33.8 41.4629 31.55C41.4629 29.3 41.1029 27.563 40.3829 26.339C39.6629 25.097 38.6459 24.476 37.3319 24.476C36.0179 24.476 35.0009 25.097 34.2809 26.339C33.5609 27.563 33.2009 29.3 33.2009 31.55C33.2009 33.8 33.5609 35.546 34.2809 36.788C35.0009 38.012 36.0179 38.624 37.3319 38.624Z" />
<path d="M21.51 39.677V24.341L22.509 25.097L18.783 27.068L18 24.53L23.049 21.83H24.453V39.677H21.51ZM18.513 41V38.192H27.531V41H18.513Z" />
</g>
</svg>
