<svg viewBox="0 0 512 512" xmlns="http://www.w3.org/2000/svg">
    <path d="M267.244,28.446C265.71,27.947 264.054,27.947 262.519,28.446L131.452,71.032C129.929,71.527 128.604,72.487 127.669,73.775L46.665,185.266C45.741,186.538 45.244,188.065 45.244,189.631L45.244,327.442C45.244,329.008 45.741,330.534 46.665,331.806L127.669,443.298C128.604,444.585 129.929,445.546 131.452,446.041L262.519,488.627C264.054,489.126 265.71,489.126 267.244,488.627L398.311,446.041C399.834,445.546 401.159,444.585 402.094,443.298L483.098,331.806C484.022,330.534 484.519,329.008 484.519,327.442L484.519,189.631C484.519,188.065 484.022,186.538 483.098,185.266L402.094,73.775C401.159,72.487 399.834,71.527 398.311,71.032L267.244,28.446Z" />
</svg>