<svg viewBox="0 0 44 49" xmlns="http://www.w3.org/2000/svg" focusable="false" aria-hidden="true">
<path d="M1 18.7586L8.91257 22.6574L21.7705 12.9103V4.13785L8.91257 7.06199L1 18.7586Z" stroke-linejoin="round"/>
<path d="M21.7705 4.13785L21.7705 12.9103L34.6284 22.6574L42.541 18.7586L34.6284 7.06199L21.7705 4.13785Z" stroke-linejoin="round"/>
<path d="M29.6831 37.2781H13.8579L8.91257 22.6574L21.7705 12.9103L34.6284 22.6574L29.6831 37.2781Z" stroke-linejoin="round"/>
<path d="M1 18.7586L8.91257 22.6574L13.8579 37.2781L8.91257 43.1264L1 32.4046V18.7586Z" stroke-linejoin="round"/>
<path d="M42.541 18.7586L34.6284 22.6574L29.6831 37.2781L34.6284 43.1264L42.541 32.4046V18.7586Z" stroke-linejoin="round"/>
<path d="M8.91257 43.1264L13.8579 37.2781H29.6831L34.6284 43.1264L21.276 48L8.91257 43.1264Z" stroke-linejoin="round"/>
</svg>