<svg viewBox="0 0 73 83" xmlns="http://www.w3.org/2000/svg" focusable="false" aria-hidden="true">
<path d="M1.48572 32.3359L14.824 38.9083L36.4988 22.4774V7.68958L14.824 12.6188L1.48572 32.3359Z" stroke-width="1.68571" stroke-linejoin="round"/>
<path d="M36.4988 7.68952L36.4988 22.4773L58.1736 38.9082L71.512 32.3359L58.1736 12.6188L36.4988 7.68952Z" stroke-width="1.68571" stroke-linejoin="round"/>
<path d="M50.0131 63.5545H23.3365L15 38.9082L36.6748 22.4773L58.3496 38.9082L50.0131 63.5545Z" stroke-width="1.68571" stroke-linejoin="round"/>
<path d="M1.48572 32.3358L14.824 38.9082L23.1605 63.5545L14.824 73.4131L1.48572 55.3391V32.3358Z" stroke-width="1.68571" stroke-linejoin="round"/>
<path d="M71.5118 32.3358L58.1735 38.9082L49.8371 63.5545L58.1735 73.4131L71.5118 55.3391V32.3358Z" stroke-width="1.68571" stroke-linejoin="round"/>
<path d="M14.8241 73.4131L23.1605 63.5546H49.8372L58.1737 73.4131L35.6652 81.6286L14.8241 73.4131Z" stroke-width="1.68571" stroke-linejoin="round"/>
<g>
<path d="M37.662 55.17L36.771 52.956L42.549 46.449C42.855 46.125 43.17 45.756 43.494 45.342C43.836 44.91 44.16 44.469 44.466 44.019C44.772 43.569 45.015 43.128 45.195 42.696C45.393 42.246 45.492 41.823 45.492 41.427C45.492 40.851 45.375 40.365 45.141 39.969C44.925 39.555 44.601 39.24 44.169 39.024C43.755 38.808 43.251 38.7 42.657 38.7C42.135 38.7 41.622 38.853 41.118 39.159C40.614 39.465 40.155 39.897 39.741 40.455C39.327 41.013 39.003 41.661 38.769 42.399L36.528 40.995C36.834 39.951 37.293 39.06 37.905 38.322C38.535 37.566 39.282 36.99 40.146 36.594C41.028 36.198 41.982 36 43.008 36C44.07 36 45.015 36.225 45.843 36.675C46.671 37.107 47.319 37.719 47.787 38.511C48.255 39.285 48.489 40.185 48.489 41.211C48.489 41.625 48.444 42.048 48.354 42.48C48.264 42.912 48.12 43.362 47.922 43.83C47.724 44.28 47.472 44.757 47.166 45.261C46.86 45.747 46.491 46.26 46.059 46.8C45.645 47.34 45.168 47.907 44.628 48.501L40.335 53.172L39.795 52.362H49.083V55.17H37.662Z" />
<path d="M27.51 53.847V38.511L28.509 39.267L24.783 41.238L24 38.7L29.049 36H30.453V53.847H27.51ZM24.513 55.17V52.362H33.531V55.17H24.513Z" />
</g>
</svg>