<svg viewBox="0 0 42 48" xmlns="http://www.w3.org/2000/svg">
<path d="M6.99726 31L34.9845 31L20.9909 9L6.99726 31Z" stroke-linejoin="round"/>
<path d="M20.9909 1V9L40.9817 11L20.9909 1Z" stroke-linejoin="round"/>
<path d="M20.9909 1V9L1 11L20.9909 1Z" stroke-linejoin="round"/>
<path d="M40.9817 11L34.9845 31L40.9817 35L40.9817 11Z" stroke-linejoin="round"/>
<path d="M20.9909 8.99999L34.9845 31L40.9817 11.0112L20.9909 8.99999Z" stroke-linejoin="round"/>
<path d="M40.9817 35L34.9845 31L20.9909 47L40.9817 35Z" stroke-linejoin="round"/>
<path d="M1 11L6.99726 31L1 34L1 11Z" stroke-linejoin="round"/>
<path d="M20.9909 9L6.99726 31L1 11.0167L20.9909 9Z" stroke-linejoin="round"/>
<path d="M1 34L6.99726 31L20.9909 47L1 34Z" stroke-linejoin="round"/>
<path d="M21.0064 47L35 31L7.01278 31L21.0064 47Z" stroke-linejoin="round"/>
</svg>