<svg viewBox="0 0 71 80" xmlns="http://www.w3.org/2000/svg" focusable="false" aria-hidden="true">
<path d="M35.2703 1.4V14.8857L68.9692 18.2571L35.2703 1.4Z" stroke-width="1.68571" stroke-linejoin="round"/>
<path d="M35.2703 1.4V14.8857L1.57141 18.2571L35.2703 1.4Z" stroke-width="1.68571" stroke-linejoin="round"/>
<path d="M68.9692 18.2572L58.8596 51.9714L68.9692 58.7143V18.2572Z" stroke-width="1.68571" stroke-linejoin="round"/>
<path d="M42 25L35.2703 14.8857L68.9692 18.276L58.8595 51.9714L52.5 42" stroke-width="1.68571" stroke-linejoin="round"/>
<path d="M68.9691 58.7143L58.8594 51.9714L35.2702 78.9429L68.9691 58.7143Z" stroke-width="1.68571" stroke-linejoin="round"/>
<path d="M1.57136 18.2571L11.681 51.9714L1.57136 57.0286L1.57136 18.2571Z" stroke-width="1.68571" stroke-linejoin="round"/>
<path d="M1.57141 18.2853L35.2703 14.8857L69.5 18.2853L58.5 51.9714L11.6811 51.9714L1.57141 18.2853Z" stroke-width="1.68571" stroke-linejoin="round"/>
<path d="M1.57141 57.0286L11.6811 51.9714L35.2703 78.9429L1.57141 57.0286Z" stroke-width="1.68571" stroke-linejoin="round"/>
<path d="M35.2964 78.9429L58.8856 51.9714L11.7072 51.9714L35.2964 78.9429Z" stroke-width="1.68571" stroke-linejoin="round"/>
<path d="M16.4999 44.5L11.6811 51.9714L58.8595 51.9714L54.4999 44.5M30.4999 22.5L35.2703 14.8857L40.4999 22.5" stroke-width="1.68571" stroke-linejoin="round"/>
<g>
<path d="M43.034 46.44C41.594 46.44 40.352 46.044 39.308 45.252C38.282 44.46 37.49 43.344 36.932 41.904C36.374 40.446 36.095 38.718 36.095 36.72C36.095 34.722 36.374 33.003 36.932 31.563C37.49 30.105 38.282 28.98 39.308 28.188C40.352 27.396 41.594 27 43.034 27C44.474 27 45.716 27.396 46.76 28.188C47.804 28.98 48.605 30.105 49.163 31.563C49.721 33.003 50 34.722 50 36.72C50 38.718 49.721 40.446 49.163 41.904C48.605 43.344 47.804 44.46 46.76 45.252C45.716 46.044 44.474 46.44 43.034 46.44ZM43.034 43.794C44.348 43.794 45.365 43.182 46.085 41.958C46.805 40.716 47.165 38.97 47.165 36.72C47.165 34.47 46.805 32.733 46.085 31.509C45.365 30.267 44.348 29.646 43.034 29.646C41.72 29.646 40.703 30.267 39.983 31.509C39.263 32.733 38.903 34.47 38.903 36.72C38.903 38.97 39.263 40.716 39.983 41.958C40.703 43.182 41.72 43.794 43.034 43.794Z" />
<path d="M22.572 46.17L21.681 43.956L27.459 37.449C27.765 37.125 28.08 36.756 28.404 36.342C28.746 35.91 29.07 35.469 29.376 35.019C29.682 34.569 29.925 34.128 30.105 33.696C30.303 33.246 30.402 32.823 30.402 32.427C30.402 31.851 30.285 31.365 30.051 30.969C29.835 30.555 29.511 30.24 29.079 30.024C28.665 29.808 28.161 29.7 27.567 29.7C27.045 29.7 26.532 29.853 26.028 30.159C25.524 30.465 25.065 30.897 24.651 31.455C24.237 32.013 23.913 32.661 23.679 33.399L21.438 31.995C21.744 30.951 22.203 30.06 22.815 29.322C23.445 28.566 24.192 27.99 25.056 27.594C25.938 27.198 26.892 27 27.918 27C28.98 27 29.925 27.225 30.753 27.675C31.581 28.107 32.229 28.719 32.697 29.511C33.165 30.285 33.399 31.185 33.399 32.211C33.399 32.625 33.354 33.048 33.264 33.48C33.174 33.912 33.03 34.362 32.832 34.83C32.634 35.28 32.382 35.757 32.076 36.261C31.77 36.747 31.401 37.26 30.969 37.8C30.555 38.34 30.078 38.907 29.538 39.501L25.245 44.172L24.705 43.362H33.993V46.17H22.572Z" />
</g>
</svg>