<svg viewBox="0 0 65 65" xmlns="http://www.w3.org/2000/svg">
<path d="M26.7791 59.2863C40.7133 63.02 55.0877 54.3821 58.9246 40.0625C62.7616 25.743 54.6319 11.0751 40.6977 7.34148C26.7634 3.60781 12.389 12.2457 8.5521 26.5652C4.71519 40.8848 12.8449 55.5526 26.7791 59.2863Z" stroke-width="1.69"/>
<path d="M24.6702 57.6585C38.6044 61.3922 52.9788 52.7543 56.8158 38.4348C60.6527 24.1152 52.523 9.4474 38.5888 5.71373C24.6545 1.98007 10.2801 10.618 6.44321 24.9375C2.6063 39.257 10.736 53.9249 24.6702 57.6585Z" stroke-width="1.69"/>
<g>
<path d="M26.134 41.17L25.243 38.956L31.021 32.449C31.327 32.125 31.642 31.756 31.966 31.342C32.308 30.91 32.632 30.469 32.938 30.019C33.244 29.569 33.487 29.128 33.667 28.696C33.865 28.246 33.964 27.823 33.964 27.427C33.964 26.851 33.847 26.365 33.613 25.969C33.397 25.555 33.073 25.24 32.641 25.024C32.227 24.808 31.723 24.7 31.129 24.7C30.607 24.7 30.094 24.853 29.59 25.159C29.086 25.465 28.627 25.897 28.213 26.455C27.799 27.013 27.475 27.661 27.241 28.399L25 26.995C25.306 25.951 25.765 25.06 26.377 24.322C27.007 23.566 27.754 22.99 28.618 22.594C29.5 22.198 30.454 22 31.48 22C32.542 22 33.487 22.225 34.315 22.675C35.143 23.107 35.791 23.719 36.259 24.511C36.727 25.285 36.961 26.185 36.961 27.211C36.961 27.625 36.916 28.048 36.826 28.48C36.736 28.912 36.592 29.362 36.394 29.83C36.196 30.28 35.944 30.757 35.638 31.261C35.332 31.747 34.963 32.26 34.531 32.8C34.117 33.34 33.64 33.907 33.1 34.501L28.807 39.172L28.267 38.362H37.555V41.17H26.134Z"/>
</g>
</svg>