<svg viewBox="0 0 60 63" xmlns="http://www.w3.org/2000/svg">
<path d="M48.2 14H1V61.2H48.2V14Z" stroke-width="1.68571" stroke-linejoin="round"/>
<path d="M13.0285 1.74286L1.22852 13.5429H48.4285L58.5428 1.74286H13.0285Z" stroke-width="1.68571" stroke-linejoin="round"/>
<path d="M58.5429 1.74286L48.4286 13.5429V60.7429L58.5429 48.9429V1.74286Z" stroke-width="1.68571" stroke-linejoin="round"/>
<g>
<path d="M24.561 47.224C23.625 47.224 22.752 47.062 21.942 46.738C21.15 46.396 20.457 45.928 19.863 45.334C19.287 44.74 18.828 44.038 18.486 43.228C18.162 42.418 18 41.527 18 40.555C18 40.069 18.063 39.529 18.189 38.935C18.333 38.323 18.54 37.657 18.81 36.937C19.098 36.217 19.44 35.461 19.836 34.669C20.232 33.859 20.691 33.022 21.213 32.158L23.67 28H26.505L26.613 28.27L23.643 33.265C23.103 34.183 22.617 35.056 22.185 35.884C21.771 36.712 21.42 37.495 21.132 38.233C20.844 38.953 20.628 39.61 20.484 40.204L19.836 37.423C20.178 36.865 20.547 36.379 20.943 35.965C21.339 35.533 21.762 35.173 22.212 34.885C22.68 34.597 23.166 34.381 23.67 34.237C24.174 34.093 24.696 34.021 25.236 34.021C26.28 34.021 27.234 34.309 28.098 34.885C28.98 35.443 29.682 36.19 30.204 37.126C30.744 38.062 31.014 39.088 31.014 40.204C31.014 41.554 30.735 42.76 30.177 43.822C29.637 44.866 28.881 45.694 27.909 46.306C26.937 46.918 25.821 47.224 24.561 47.224ZM24.561 44.524C25.263 44.524 25.884 44.362 26.424 44.038C26.982 43.696 27.414 43.228 27.72 42.634C28.044 42.022 28.206 41.329 28.206 40.555C28.206 39.889 28.044 39.268 27.72 38.692C27.396 38.098 26.964 37.621 26.424 37.261C25.884 36.901 25.281 36.721 24.615 36.721C23.877 36.721 23.22 36.892 22.644 37.234C22.068 37.576 21.618 38.035 21.294 38.611C20.97 39.187 20.808 39.826 20.808 40.528C20.808 41.284 20.97 41.968 21.294 42.58C21.618 43.174 22.059 43.651 22.617 44.011C23.175 44.353 23.823 44.524 24.561 44.524Z" />
</g>
</svg>
