<svg viewBox="0 0 63 73" xmlns="http://www.w3.org/2000/svg">
<path d="M1.31429 51.5714L62 51.5714L31.6571 0.999985L1.31429 51.5714Z" stroke-width="1.68571" stroke-linejoin="round"/>
<path d="M0.942871 12.8V51.5714L31.2857 1L0.942871 12.8Z" stroke-width="1.68571" stroke-linejoin="round"/>
<path d="M61.6286 12.8V51.5714L31.2858 1L61.6286 12.8Z" stroke-width="1.68571" stroke-linejoin="round"/>
<path d="M61.6286 51.5714H0.942871L30.4429 71.8L61.6286 51.5714Z" stroke-width="1.68571" stroke-linejoin="round"/>
<g>
<path d="M31.372 43.081C30.202 43.081 29.131 42.838 28.159 42.352C27.205 41.848 26.44 41.182 25.864 40.354C25.288 39.526 25 38.608 25 37.6C25 37.042 25.072 36.52 25.216 36.034C25.378 35.53 25.612 35.071 25.918 34.657C26.242 34.243 26.629 33.865 27.079 33.523C27.529 33.181 28.051 32.875 28.645 32.605L28.483 33.172C28.015 32.992 27.592 32.776 27.214 32.524C26.854 32.254 26.539 31.948 26.269 31.606C25.999 31.264 25.792 30.895 25.648 30.499C25.522 30.103 25.459 29.689 25.459 29.257C25.459 28.303 25.72 27.439 26.242 26.665C26.782 25.891 27.493 25.27 28.375 24.802C29.275 24.334 30.274 24.1 31.372 24.1C32.47 24.1 33.46 24.334 34.342 24.802C35.242 25.27 35.953 25.891 36.475 26.665C37.015 27.439 37.285 28.303 37.285 29.257C37.285 29.689 37.213 30.103 37.069 30.499C36.943 30.895 36.754 31.255 36.502 31.579C36.25 31.903 35.926 32.2 35.53 32.47C35.152 32.74 34.72 32.974 34.234 33.172L34.153 32.713C34.693 32.929 35.179 33.208 35.611 33.55C36.061 33.892 36.448 34.279 36.772 34.711C37.096 35.143 37.339 35.602 37.501 36.088C37.681 36.574 37.771 37.078 37.771 37.6C37.771 38.626 37.483 39.553 36.907 40.381C36.331 41.209 35.557 41.866 34.585 42.352C33.631 42.838 32.56 43.081 31.372 43.081ZM31.372 40.381C32.038 40.381 32.632 40.255 33.154 40.003C33.694 39.751 34.117 39.409 34.423 38.977C34.729 38.545 34.882 38.05 34.882 37.492C34.882 36.898 34.729 36.376 34.423 35.926C34.117 35.458 33.694 35.089 33.154 34.819C32.632 34.549 32.038 34.414 31.372 34.414C30.706 34.414 30.112 34.549 29.59 34.819C29.068 35.089 28.654 35.458 28.348 35.926C28.042 36.376 27.889 36.898 27.889 37.492C27.889 38.032 28.042 38.518 28.348 38.95C28.654 39.382 29.068 39.733 29.59 40.003C30.112 40.255 30.706 40.381 31.372 40.381ZM31.372 31.822C31.948 31.822 32.461 31.714 32.911 31.498C33.379 31.282 33.739 30.994 33.991 30.634C34.261 30.256 34.396 29.824 34.396 29.338C34.396 28.852 34.261 28.42 33.991 28.042C33.739 27.664 33.379 27.367 32.911 27.151C32.461 26.917 31.948 26.8 31.372 26.8C30.796 26.8 30.274 26.917 29.806 27.151C29.356 27.367 28.996 27.664 28.726 28.042C28.474 28.42 28.348 28.852 28.348 29.338C28.348 29.824 28.474 30.256 28.726 30.634C28.996 30.994 29.356 31.282 29.806 31.498C30.274 31.714 30.796 31.822 31.372 31.822Z" />
</g>
</svg>